<svg id="mol15" xmlns="http://www.w3.org/2000/svg" version="1.1" width="77px" height="70px" viewBox="111 69 77 70">
  <style> text {font-family: sans-serif;} #mol15 { pointer-events:none; } #mol15 .event  { pointer-events:all; } line { stroke-linecap:round; } polygon { stroke-linejoin:round; } </style>
  <text x="134.55" y="128.67" stroke="none" font-size="14" fill="rgb(48,80,248)">N</text>
  <line x1="160.39" y1="112" x2="145.66" y2="120.5" stroke="rgb(0,0,0)" stroke-width="1.44" />
  <line x1="156.37" y1="110.16" x2="144.53" y2="117" stroke="rgb(0,0,0)" stroke-width="1.44" />
  <line x1="139.61" y1="76" x2="160.39" y2="88" stroke="rgb(0,0,0)" stroke-width="1.44" />
  <line x1="140.03" y1="80.4" x2="156.37" y2="89.84" stroke="rgb(0,0,0)" stroke-width="1.44" />
  <line x1="118.82" y1="112" x2="118.82" y2="88" stroke="rgb(0,0,0)" stroke-width="1.44" />
  <line x1="122.42" y1="109.44" x2="122.42" y2="90.56" stroke="rgb(0,0,0)" stroke-width="1.44" />
  <line x1="133.55" y1="120.5" x2="118.82" y2="112" stroke="rgb(0,0,0)" stroke-width="1.44" />
  <line x1="160.39" y1="112" x2="181.18" y2="124" stroke="rgb(0,0,0)" stroke-width="1.44" />
  <line x1="160.39" y1="88" x2="160.39" y2="112" stroke="rgb(0,0,0)" stroke-width="1.44" />
  <line x1="139.61" y1="76" x2="118.82" y2="88" stroke="rgb(0,0,0)" stroke-width="1.44" />
  <line id="mol15:Bond:1" class="event" x1="160.39" y1="112" x2="139.61" y2="124" stroke-width="8" opacity="0" />
  <line id="mol15:Bond:4" class="event" x1="139.61" y1="76" x2="160.39" y2="88" stroke-width="8" opacity="0" />
  <line id="mol15:Bond:6" class="event" x1="118.82" y1="112" x2="118.82" y2="88" stroke-width="8" opacity="0" />
  <line id="mol15:Bond:0" class="event" x1="139.61" y1="124" x2="118.82" y2="112" stroke-width="8" opacity="0" />
  <line id="mol15:Bond:2" class="event" x1="160.39" y1="112" x2="181.18" y2="124" stroke-width="8" opacity="0" />
  <line id="mol15:Bond:3" class="event" x1="160.39" y1="88" x2="160.39" y2="112" stroke-width="8" opacity="0" />
  <line id="mol15:Bond:5" class="event" x1="139.61" y1="76" x2="118.82" y2="88" stroke-width="8" opacity="0" />
  <circle id="mol15:Atom:0" class="event" cx="139.61" cy="76" r="8" opacity="0" />
  <circle id="mol15:Atom:1" class="event" cx="160.39" cy="88" r="8" opacity="0" />
  <circle id="mol15:Atom:2" class="event" cx="160.39" cy="112" r="8" opacity="0" />
  <circle id="mol15:Atom:3" class="event" cx="139.61" cy="124" r="8" opacity="0" />
  <circle id="mol15:Atom:4" class="event" cx="118.82" cy="112" r="8" opacity="0" />
  <circle id="mol15:Atom:5" class="event" cx="118.82" cy="88" r="8" opacity="0" />
  <circle id="mol15:Atom:6" class="event" cx="181.18" cy="124" r="8" opacity="0" />
</svg>