<svg id="mol20" xmlns="http://www.w3.org/2000/svg" version="1.1" width="115px" height="62px" viewBox="93 69 115 62">
  <style> text {font-family: sans-serif;} #mol20 { pointer-events:none; } #mol20 .event  { pointer-events:all; } line { stroke-linecap:round; } polygon { stroke-linejoin:round; } </style>
  <text x="104.42" y="145.63" stroke="none" font-size="12" fill="rgb(160,0,0)">both enantiomers</text>
  <text x="134.1" y="88.18" stroke="none" font-size="14" fill="rgb(255,13,13)">O</text>
  <text x="146.94" y="101.17" stroke="none" font-size="9" fill="rgb(0,128,0)">&1</text>
  <text x="186.81" y="109.08" stroke="none" font-size="14" fill="rgb(31,240,31)">Cl</text>
  <text x="163.63" y="92.02" stroke="none" font-size="14" fill="rgb(0,0,0)">H</text>
  <text x="101.53" y="121.15" stroke="none" font-size="14" fill="rgb(0,0,0)">H</text>
  <text x="105.09" y="93.85" stroke="none" font-size="14" fill="rgb(0,0,0)">H</text>
  <line x1="143.59" y1="90.52" x2="147.6" y2="97.47" stroke="rgb(0,0,0)" stroke-width="1.44" />
  <line x1="147.6" y1="97.47" x2="151.62" y2="104.42" stroke="rgb(192,0,255)" stroke-width="1.44" />
  <line x1="135.51" y1="90.52" x2="131.5" y2="97.47" stroke="rgb(0,0,0)" stroke-width="1.44" />
  <line x1="131.5" y1="97.47" x2="127.49" y2="104.42" stroke="rgb(192,0,255)" stroke-width="1.44" />
  <line x1="172.51" y1="116.48" x2="185.81" y2="108.81" stroke="rgb(0,0,0)" stroke-width="1.44" />
  <line x1="151.62" y1="104.42" x2="127.49" y2="104.42" stroke="rgb(192,0,255)" stroke-width="1.44" />
  <polygon points="152,104 161,112 163,109 " fill="rgb(192,0,255)" stroke="rgb(192,0,255)" stroke-width="1.44" />
  <polygon points="163,109 161,112 171,119 174,114 " fill="rgb(0,128,0)" stroke="rgb(0,128,0)" stroke-width="1.44" />
  <polygon points="127,104 120,108 121,110 " fill="rgb(192,0,255)" stroke="rgb(192,0,255)" stroke-width="1.44" />
  <polygon points="121,110 120,108 112,111 114,115 " fill="rgb(192,0,255)" stroke="rgb(192,0,255)" stroke-width="1.44" />
  <line x1="125.68" y1="102.35" x2="125.21" y2="102.89" stroke="rgb(192,0,255)" stroke-width="1.44" />
  <line x1="123.88" y1="100.29" x2="122.93" y2="101.37" stroke="rgb(192,0,255)" stroke-width="1.44" />
  <line x1="122.08" y1="98.23" x2="120.65" y2="99.85" stroke="rgb(192,0,255)" stroke-width="1.44" />
  <line x1="120.28" y1="96.16" x2="118.37" y2="98.33" stroke="rgb(192,0,255)" stroke-width="1.44" />
  <line x1="118.48" y1="94.1" x2="116.1" y2="96.81" stroke="rgb(192,0,255)" stroke-width="1.44" />
  <line x1="116.67" y1="92.04" x2="116.2" y2="92.58" stroke="rgb(192,0,255)" stroke-width="1.44" />
  <line x1="153.89" y1="102.68" x2="153.36" y2="102.14" stroke="rgb(192,0,255)" stroke-width="1.44" />
  <line x1="156.16" y1="100.93" x2="155.1" y2="99.87" stroke="rgb(192,0,255)" stroke-width="1.44" />
  <line x1="158.44" y1="99.19" x2="156.84" y2="97.59" stroke="rgb(192,0,255)" stroke-width="1.44" />
  <line x1="160.71" y1="97.45" x2="158.58" y2="95.32" stroke="rgb(192,0,255)" stroke-width="1.44" />
  <line x1="162.99" y1="95.71" x2="160.32" y2="93.05" stroke="rgb(0,128,0)" stroke-width="1.44" />
  <line x1="162.63" y1="91.34" x2="162.06" y2="90.77" stroke="rgb(0,128,0)" stroke-width="1.44" />
  <line id="mol20:Bond:0" class="event" x1="139.55" y1="83.52" x2="151.62" y2="104.42" stroke-width="8" opacity="0" />
  <line id="mol20:Bond:1" class="event" x1="139.55" y1="83.52" x2="127.49" y2="104.42" stroke-width="8" opacity="0" />
  <line id="mol20:Bond:2" class="event" x1="172.51" y1="116.48" x2="193.41" y2="104.42" stroke-width="8" opacity="0" />
  <line id="mol20:Bond:3" class="event" x1="151.62" y1="104.42" x2="127.49" y2="104.42" stroke-width="8" opacity="0" />
  <line id="mol20:Bond:4" class="event" x1="151.62" y1="104.42" x2="172.51" y2="116.48" stroke-width="8" opacity="0" />
  <line id="mol20:Bond:5" class="event" x1="127.49" y1="104.42" x2="106.59" y2="116.48" stroke-width="8" opacity="0" />
  <line id="mol20:Bond:6" class="event" x1="127.49" y1="104.42" x2="110.15" y2="89.18" stroke-width="8" opacity="0" />
  <line id="mol20:Bond:7" class="event" x1="151.62" y1="104.42" x2="168.68" y2="87.35" stroke-width="8" opacity="0" />
  <circle id="mol20:Atom:0" class="event" cx="139.55" cy="83.52" r="8" opacity="0" />
  <circle id="mol20:Atom:1" class="event" cx="151.62" cy="104.42" r="8" opacity="0" />
  <circle id="mol20:Atom:2" class="event" cx="127.49" cy="104.42" r="8" opacity="0" />
  <circle id="mol20:Atom:3" class="event" cx="172.51" cy="116.48" r="8" opacity="0" />
  <circle id="mol20:Atom:4" class="event" cx="193.41" cy="104.42" r="8" opacity="0" />
  <circle id="mol20:Atom:5" class="event" cx="168.68" cy="87.35" r="8" opacity="0" />
  <circle id="mol20:Atom:6" class="event" cx="106.59" cy="116.48" r="8" opacity="0" />
  <circle id="mol20:Atom:7" class="event" cx="110.15" cy="89.18" r="8" opacity="0" />
</svg>