<svg id="mol11" xmlns="http://www.w3.org/2000/svg" version="1.1" width="77px" height="58px" viewBox="111 68 77 58">
  <style> text {font-family: sans-serif;} #mol11 { pointer-events:none; } #mol11 .event  { pointer-events:all; } line { stroke-linecap:round; } polygon { stroke-linejoin:round; } </style>
  <text x="108.98" y="140.16" stroke="none" font-size="12" fill="rgb(160,0,0)">this enantiomer</text>
  <text x="133.65" y="113.98" stroke="none" font-size="9" fill="rgb(160,0,0)">S</text>
  <text x="137.85" y="105.83" stroke="none" font-size="9" fill="rgb(160,0,0)">abs</text>
  <text x="132.65" y="86.66" stroke="none" font-size="14" fill="rgb(166,41,41)">Br</text>
  <line x1="118.81" y1="118.01" x2="139.65" y2="105.98" stroke="rgb(0,0,0)" stroke-width="1.44" />
  <line x1="139.65" y1="105.98" x2="160.42" y2="117.97" stroke="rgb(0,0,0)" stroke-width="1.44" />
  <line x1="160.42" y1="117.97" x2="181.19" y2="105.98" stroke="rgb(0,0,0)" stroke-width="1.44" />
  <line x1="140.03" y1="103.15" x2="139.28" y2="103.15" stroke="rgb(160,0,0)" stroke-width="1.44" />
  <line x1="140.4" y1="100.33" x2="138.9" y2="100.33" stroke="rgb(160,0,0)" stroke-width="1.44" />
  <line x1="140.78" y1="97.51" x2="138.53" y2="97.51" stroke="rgb(160,0,0)" stroke-width="1.44" />
  <line x1="141.15" y1="94.69" x2="138.15" y2="94.69" stroke="rgb(160,0,0)" stroke-width="1.44" />
  <line x1="141.53" y1="91.87" x2="137.78" y2="91.87" stroke="rgb(160,0,0)" stroke-width="1.44" />
  <line x1="141.9" y1="89.05" x2="137.4" y2="89.05" stroke="rgb(160,0,0)" stroke-width="1.44" />
  <line id="mol11:Bond:0" class="event" x1="118.81" y1="118.01" x2="139.65" y2="105.98" stroke-width="8" opacity="0" />
  <line id="mol11:Bond:1" class="event" x1="139.65" y1="105.98" x2="160.42" y2="117.97" stroke-width="8" opacity="0" />
  <line id="mol11:Bond:2" class="event" x1="160.42" y1="117.97" x2="181.19" y2="105.98" stroke-width="8" opacity="0" />
  <line id="mol11:Bond:3" class="event" x1="139.65" y1="105.98" x2="139.65" y2="81.99" stroke-width="8" opacity="0" />
  <circle id="mol11:Atom:0" class="event" cx="118.81" cy="118.01" r="8" opacity="0" />
  <circle id="mol11:Atom:1" class="event" cx="139.65" cy="105.98" r="8" opacity="0" />
  <circle id="mol11:Atom:2" class="event" cx="160.42" cy="117.97" r="8" opacity="0" />
  <circle id="mol11:Atom:3" class="event" cx="181.19" cy="105.98" r="8" opacity="0" />
  <circle id="mol11:Atom:4" class="event" cx="139.65" cy="81.99" r="8" opacity="0" />
</svg>