<svg id="mol7" xmlns="http://www.w3.org/2000/svg" version="1.1" width="98px" height="94px" viewBox="101 50 98 94">
  <style> text {font-family: sans-serif;} #mol7 { pointer-events:none; } #mol7 .event  { pointer-events:all; } line { stroke-linecap:round; } polygon { stroke-linejoin:round; } </style>
  <text x="165.34" y="68.67" stroke="none" font-size="14" fill="rgb(255,13,13)">O</text>
  <line x1="129.22" y1="88" x2="150" y2="100" stroke="rgb(0,0,0)" stroke-width="1.44" />
  <line x1="129.63" y1="92.4" x2="145.98" y2="101.84" stroke="rgb(0,0,0)" stroke-width="1.44" />
  <line x1="108.43" y1="124" x2="108.43" y2="100" stroke="rgb(0,0,0)" stroke-width="1.44" />
  <line x1="112.03" y1="121.44" x2="112.03" y2="102.56" stroke="rgb(0,0,0)" stroke-width="1.44" />
  <line x1="150" y1="124" x2="129.22" y2="136" stroke="rgb(0,0,0)" stroke-width="1.44" />
  <line x1="145.98" y1="122.16" x2="129.63" y2="131.6" stroke="rgb(0,0,0)" stroke-width="1.44" />
  <line x1="172.58" y1="89.04" x2="172.58" y2="71" stroke="rgb(0,0,0)" stroke-width="1.44" />
  <line x1="168.98" y1="89.04" x2="168.98" y2="71" stroke="rgb(0,0,0)" stroke-width="1.44" />
  <line x1="150" y1="100" x2="150" y2="124" stroke="rgb(0,0,0)" stroke-width="1.44" />
  <line x1="150" y1="100" x2="170.78" y2="88" stroke="rgb(0,0,0)" stroke-width="1.44" />
  <line x1="129.22" y1="88" x2="108.43" y2="100" stroke="rgb(0,0,0)" stroke-width="1.44" />
  <line x1="129.22" y1="136" x2="108.43" y2="124" stroke="rgb(0,0,0)" stroke-width="1.44" />
  <line x1="170.78" y1="88" x2="191.57" y2="100" stroke="rgb(0,0,0)" stroke-width="1.44" />
  <line id="mol7:Bond:2" class="event" x1="129.22" y1="88" x2="150" y2="100" stroke-width="8" opacity="0" />
  <line id="mol7:Bond:4" class="event" x1="108.43" y1="124" x2="108.43" y2="100" stroke-width="8" opacity="0" />
  <line id="mol7:Bond:6" class="event" x1="150" y1="124" x2="129.22" y2="136" stroke-width="8" opacity="0" />
  <line id="mol7:Bond:7" class="event" x1="170.78" y1="88" x2="170.78" y2="64" stroke-width="8" opacity="0" />
  <line id="mol7:Bond:0" class="event" x1="150" y1="100" x2="150" y2="124" stroke-width="8" opacity="0" />
  <line id="mol7:Bond:1" class="event" x1="150" y1="100" x2="170.78" y2="88" stroke-width="8" opacity="0" />
  <line id="mol7:Bond:3" class="event" x1="129.22" y1="88" x2="108.43" y2="100" stroke-width="8" opacity="0" />
  <line id="mol7:Bond:5" class="event" x1="129.22" y1="136" x2="108.43" y2="124" stroke-width="8" opacity="0" />
  <line id="mol7:Bond:8" class="event" x1="170.78" y1="88" x2="191.57" y2="100" stroke-width="8" opacity="0" />
  <circle id="mol7:Atom:0" class="event" cx="129.22" cy="88" r="8" opacity="0" />
  <circle id="mol7:Atom:1" class="event" cx="150" cy="100" r="8" opacity="0" />
  <circle id="mol7:Atom:2" class="event" cx="150" cy="124" r="8" opacity="0" />
  <circle id="mol7:Atom:3" class="event" cx="129.22" cy="136" r="8" opacity="0" />
  <circle id="mol7:Atom:4" class="event" cx="108.43" cy="124" r="8" opacity="0" />
  <circle id="mol7:Atom:5" class="event" cx="108.43" cy="100" r="8" opacity="0" />
  <circle id="mol7:Atom:6" class="event" cx="170.78" cy="88" r="8" opacity="0" />
  <circle id="mol7:Atom:7" class="event" cx="191.57" cy="100" r="8" opacity="0" />
  <circle id="mol7:Atom:8" class="event" cx="170.78" cy="64" r="8" opacity="0" />
</svg>