<svg id="mol18" xmlns="http://www.w3.org/2000/svg" version="1.1" width="114px" height="125px" viewBox="101 38 114 125">
  <style> text {font-family: sans-serif;} #mol18 { pointer-events:none; } #mol18 .event  { pointer-events:all; } line { stroke-linecap:round; } polygon { stroke-linejoin:round; } </style>
  <text x="186.12" y="92.67" stroke="none" font-size="14" fill="rgb(255,13,13)">O</text>
  <text x="197.02" y="92.67" stroke="none" font-size="14" fill="rgb(255,13,13)">H</text>
  <text x="123.77" y="56.67" stroke="none" font-size="14" fill="rgb(255,13,13)">O</text>
  <text x="134.66" y="56.67" stroke="none" font-size="14" fill="rgb(255,13,13)">H</text>
  <text x="123.77" y="152.67" stroke="none" font-size="14" fill="rgb(255,13,13)">O</text>
  <text x="134.66" y="152.67" stroke="none" font-size="14" fill="rgb(255,13,13)">H</text>
  <line x1="129.22" y1="76" x2="150" y2="88" stroke="rgb(0,0,0)" stroke-width="1.44" />
  <line x1="129.63" y1="80.4" x2="145.98" y2="89.84" stroke="rgb(0,0,0)" stroke-width="1.44" />
  <line x1="108.43" y1="112" x2="108.43" y2="88" stroke="rgb(0,0,0)" stroke-width="1.44" />
  <line x1="112.03" y1="109.44" x2="112.03" y2="90.56" stroke="rgb(0,0,0)" stroke-width="1.44" />
  <line x1="150" y1="112" x2="129.22" y2="124" stroke="rgb(0,0,0)" stroke-width="1.44" />
  <line x1="145.98" y1="110.16" x2="129.63" y2="119.6" stroke="rgb(0,0,0)" stroke-width="1.44" />
  <line x1="150" y1="88" x2="150" y2="112" stroke="rgb(0,0,0)" stroke-width="1.44" />
  <line x1="150" y1="88" x2="170.78" y2="76" stroke="rgb(0,0,0)" stroke-width="1.44" />
  <line x1="129.22" y1="76" x2="108.43" y2="88" stroke="rgb(0,0,0)" stroke-width="1.44" />
  <line x1="129.22" y1="76" x2="129.22" y2="59" stroke="rgb(0,0,0)" stroke-width="1.44" />
  <line x1="129.22" y1="124" x2="108.43" y2="112" stroke="rgb(0,0,0)" stroke-width="1.44" />
  <line x1="129.22" y1="124" x2="129.22" y2="141" stroke="rgb(0,0,0)" stroke-width="1.44" />
  <line x1="170.78" y1="76" x2="185.12" y2="84.28" stroke="rgb(0,0,0)" stroke-width="1.44" />
  <line id="mol18:Bond:2" class="event" x1="129.22" y1="76" x2="150" y2="88" stroke-width="8" opacity="0" />
  <line id="mol18:Bond:5" class="event" x1="108.43" y1="112" x2="108.43" y2="88" stroke-width="8" opacity="0" />
  <line id="mol18:Bond:8" class="event" x1="150" y1="112" x2="129.22" y2="124" stroke-width="8" opacity="0" />
  <line id="mol18:Bond:0" class="event" x1="150" y1="88" x2="150" y2="112" stroke-width="8" opacity="0" />
  <line id="mol18:Bond:1" class="event" x1="150" y1="88" x2="170.78" y2="76" stroke-width="8" opacity="0" />
  <line id="mol18:Bond:3" class="event" x1="129.22" y1="76" x2="108.43" y2="88" stroke-width="8" opacity="0" />
  <line id="mol18:Bond:4" class="event" x1="129.22" y1="76" x2="129.22" y2="52" stroke-width="8" opacity="0" />
  <line id="mol18:Bond:6" class="event" x1="129.22" y1="124" x2="108.43" y2="112" stroke-width="8" opacity="0" />
  <line id="mol18:Bond:7" class="event" x1="129.22" y1="124" x2="129.22" y2="148" stroke-width="8" opacity="0" />
  <line id="mol18:Bond:9" class="event" x1="170.78" y1="76" x2="191.57" y2="88" stroke-width="8" opacity="0" />
  <circle id="mol18:Atom:0" class="event" cx="129.22" cy="76" r="8" opacity="0" />
  <circle id="mol18:Atom:1" class="event" cx="150" cy="88" r="8" opacity="0" />
  <circle id="mol18:Atom:2" class="event" cx="150" cy="112" r="8" opacity="0" />
  <circle id="mol18:Atom:3" class="event" cx="129.22" cy="124" r="8" opacity="0" />
  <circle id="mol18:Atom:4" class="event" cx="108.43" cy="112" r="8" opacity="0" />
  <circle id="mol18:Atom:5" class="event" cx="108.43" cy="88" r="8" opacity="0" />
  <circle id="mol18:Atom:6" class="event" cx="170.78" cy="76" r="8" opacity="0" />
  <circle id="mol18:Atom:7" class="event" cx="191.57" cy="88" r="8" opacity="0" />
  <circle id="mol18:Atom:8" class="event" cx="129.22" cy="52" r="8" opacity="0" />
  <circle id="mol18:Atom:9" class="event" cx="129.22" cy="148" r="8" opacity="0" />
</svg>